<?xml version="1.0" encoding="UTF-8" standalone="no"?>
<!-- Created with Inkscape (http://www.inkscape.org/) -->

<svg
   xmlns:osb="http://www.openswatchbook.org/uri/2009/osb"
   xmlns:dc="http://purl.org/dc/elements/1.1/"
   xmlns:cc="http://creativecommons.org/ns#"
   xmlns:rdf="http://www.w3.org/1999/02/22-rdf-syntax-ns#"
   xmlns:svg="http://www.w3.org/2000/svg"
   xmlns="http://www.w3.org/2000/svg"
   xmlns:xlink="http://www.w3.org/1999/xlink"
   xmlns:sodipodi="http://sodipodi.sourceforge.net/DTD/sodipodi-0.dtd"
   xmlns:inkscape="http://www.inkscape.org/namespaces/inkscape"
   width="297mm"
   height="210mm"
   viewBox="0 0 297 210"
   version="1.1"
   id="svg8"
   inkscape:version="0.92.2 (5c3e80d, 2017-08-06)"
   sodipodi:docname="scenery.svg">
  <defs
     id="defs2">
    <linearGradient
       id="linearGradient3100"
       inkscape:collect="always">
      <stop
         id="stop3096"
         offset="0"
         style="stop-color:#00ffff;stop-opacity:1;" />
      <stop
         id="stop3098"
         offset="1"
         style="stop-color:#ffff00;stop-opacity:1" />
    </linearGradient>
    <linearGradient
       inkscape:collect="always"
       id="linearGradient2354-3">
      <stop
         style="stop-color:#00ffff;stop-opacity:1;"
         offset="0"
         id="stop2350" />
      <stop
         style="stop-color:#00ffff;stop-opacity:0;"
         offset="1"
         id="stop2352" />
    </linearGradient>
    <linearGradient
       id="linearGradient2275"
       osb:paint="solid">
      <stop
         style="stop-color:#000000;stop-opacity:1;"
         offset="0"
         id="stop2273" />
    </linearGradient>
    <linearGradient
       inkscape:collect="always"
       xlink:href="#linearGradient2354-3"
       id="linearGradient2360"
       x1="1.6036172"
       y1="163.36523"
       x2="300.41095"
       y2="163.36523"
       gradientUnits="userSpaceOnUse" />
    <clipPath
       clipPathUnits="userSpaceOnUse"
       id="clipPath2367">
      <use
         x="0"
         y="0"
         xlink:href="#g2363"
         id="use2369"
         width="100%"
         height="100%" />
    </clipPath>
    <linearGradient
       inkscape:collect="always"
       xlink:href="#linearGradient2354-3"
       id="linearGradient2954"
       gradientUnits="userSpaceOnUse"
       x1="1.6036172"
       y1="163.36523"
       x2="300.41095"
       y2="163.36523" />
    <linearGradient
       inkscape:collect="always"
       xlink:href="#linearGradient3100"
       id="linearGradient4050"
       gradientUnits="userSpaceOnUse"
       x1="1.6036172"
       y1="163.36523"
       x2="48.643055"
       y2="242.47702" />
  </defs>
  <sodipodi:namedview
     id="base"
     pagecolor="#ffffff"
     bordercolor="#666666"
     borderopacity="1.0"
     inkscape:pageopacity="0.0"
     inkscape:pageshadow="2"
     inkscape:zoom="0.49497475"
     inkscape:cx="340.22508"
     inkscape:cy="447.37466"
     inkscape:document-units="mm"
     inkscape:current-layer="layer1"
     showgrid="false"
     showguides="false"
     inkscape:window-width="1299"
     inkscape:window-height="713"
     inkscape:window-x="67"
     inkscape:window-y="27"
     inkscape:window-maximized="1"
     inkscape:measure-start="0,0"
     inkscape:measure-end="0,0" />
  <metadata
     id="metadata5">
    <rdf:RDF>
      <cc:Work
         rdf:about="">
        <dc:format>image/svg+xml</dc:format>
        <dc:type
           rdf:resource="http://purl.org/dc/dcmitype/StillImage" />
        <dc:title></dc:title>
      </cc:Work>
    </rdf:RDF>
  </metadata>
  <g
     inkscape:label="Layer 1"
     inkscape:groupmode="layer"
     id="layer1"
     transform="translate(0,-87)">
    <g
       id="g2365"
       clip-path="url(#clipPath2367)">
      <g
         inkscape:label="Clip"
         id="g2363"
         style="fill-opacity:1;fill:url(#linearGradient2954)">
        <rect
           inkscape:transform-center-y="0.53453422"
           inkscape:transform-center-x="-8.0180858"
           y="87.460693"
           x="1.6036172"
           height="151.8091"
           width="298.80734"
           id="rect2348"
           style="fill:url(#linearGradient4050);fill-opacity:1;stroke:none;stroke-width:3;stroke-miterlimit:4;stroke-dasharray:none" />
      </g>
      <ellipse
         style="fill:#ffff00;fill-opacity:1;stroke:none;stroke-width:1;stroke-miterlimit:4;stroke-dasharray:none"
         id="path4054"
         cx="-189.22682"
         cy="164.96886"
         rx="41.694046"
         ry="44.366741" />
      <rect
         style="fill:#ffff00;fill-opacity:1;stroke:none;stroke-width:1;stroke-miterlimit:4;stroke-dasharray:none"
         id="rect4058"
         width="53.453903"
         height="48.643055"
         x="-188.69229"
         y="159.62346" />
      <rect
         style="fill:#ffff48;fill-opacity:1;stroke:none;stroke-width:1;stroke-miterlimit:4;stroke-dasharray:none"
         id="rect4083"
         width="98.355186"
         height="85.526245"
         x="-175.32881"
         y="84.788002"
         ry="20.312485" />
    </g>
    <path
       sodipodi:type="star"
       style="fill:#ff7f2a;fill-opacity:1;stroke:none;stroke-width:1;stroke-miterlimit:4;stroke-dasharray:none"
       id="path4091"
       sodipodi:sides="15"
       sodipodi:cx="259.80254"
       sodipodi:cy="131.38936"
       sodipodi:r1="36.040775"
       sodipodi:r2="12.401421"
       sodipodi:arg1="0.9539951"
       sodipodi:arg2="1.1634346"
       inkscape:flatsided="false"
       inkscape:rounded="0"
       inkscape:randomized="0"
       d="m 280.64957,160.789 -15.93372,-18.01304 2.17349,23.95056 -7.22962,-22.93656 -7.75598,22.76396 2.72455,-23.89414 -16.34438,17.64126 12.20763,-20.7202 -22.10669,9.46824 19.5799,-13.96356 -24.04655,-0.34193 23.56661,-4.79249 -21.82853,-10.09298 23.47845,5.20725 -15.83617,-18.09886 19.33065,14.3066 -7.10559,-22.975284 11.84041,20.932224 2.8536,-23.879076 2.30286,23.938466 12.31939,-20.653955 -7.63289,22.805535 19.65505,-13.85758 -16.24884,17.72931 23.59216,-4.6651 -22.05521,9.58754 23.44998,5.33402 -24.04805,-0.21202 19.25309,14.41083 -21.88275,-9.9749 z"
       inkscape:transform-center-x="0.14939506"
       inkscape:transform-center-y="-2.2259289" />
    <path
       style="fill:#803300;fill-opacity:1;stroke:none;stroke-width:3;stroke-miterlimit:4;stroke-dasharray:none"
       d="m 1.6036172,239.26979 39.5385728,-108.0833 73.25564,65.55986 81.62089,-61.24624 42.38535,36.384 57.19604,-36.3149 v 119.20221 z"
       id="rect2341"
       inkscape:connector-curvature="0"
       sodipodi:nodetypes="ccccccccc" />
    <path
       style="fill:#008000;fill-opacity:1;stroke:none;stroke-width:3;stroke-miterlimit:4;stroke-dasharray:none"
       d="m 150.20548,221.09546 c 48.28669,-18.10223 96.57339,-38.26197 144.86008,-31.5378 l 0.53454,65.21376 H 205.263 Z"
       id="rect2338"
       inkscape:connector-curvature="0"
       sodipodi:nodetypes="ccccc" />
    <path
       style="fill:#00ff00;fill-opacity:1;stroke:none;stroke-width:3;stroke-miterlimit:4;stroke-dasharray:none"
       d="m 1.6036172,239.26979 c 0,0 58.4676538,-29.56923 90.3370998,-32.60688 69.491933,-6.62367 206.866633,32.60688 206.866633,32.60688 v 57.73022 H 1.6036172 Z"
       id="rect2335"
       inkscape:connector-curvature="0"
       sodipodi:nodetypes="cscccc" />
    <path
       sodipodi:nodetypes="cscccc"
       inkscape:connector-curvature="0"
       id="path4085"
       d="m 1.6036172,239.26979 c 0,0 58.4676538,-29.56923 90.3370998,-32.60688 69.491933,-6.62367 206.866633,32.60688 206.866633,32.60688 v 57.73022 H 1.6036172 Z"
       style="fill:#00ff00;fill-opacity:1;stroke:none;stroke-width:3;stroke-miterlimit:4;stroke-dasharray:none" />
    <g
       id="g4101"
       transform="translate(161.98189,33.237883)">
      <g
         transform="translate(1.6036172,-1.6036171)"
         id="g4097">
        <ellipse
           style="fill:#ffff00;fill-opacity:1;stroke:none;stroke-width:1;stroke-miterlimit:4;stroke-dasharray:none"
           id="path4089"
           cx="96.217026"
           cy="100.28963"
           rx="15.501633"
           ry="13.898015" />
      </g>
    </g>
    <g
       id="g4136"
       transform="matrix(0.72321312,0,0,0.49720741,382.03292,158.10905)">
      <rect
         y="119.52618"
         x="-174.25972"
         height="67.35878"
         width="20.082581"
         id="rect4132"
         style="fill:#800000;fill-opacity:1;stroke:none;stroke-width:1;stroke-miterlimit:4;stroke-dasharray:none" />
      <path
         id="path4115"
         transform="matrix(0.26458333,0,0,0.26458333,0,87)"
         d="m -621.24414,15.882812 a 63.63961,34.345183 0 0 0 -63.63867,34.345704 63.63961,34.345183 0 0 0 1.91406,8.21289 61.619301,32.324881 0 0 0 -56.46289,32.19336 61.619301,32.324881 0 0 0 61.61914,32.324214 61.619301,32.324881 0 0 0 9.84961,-0.43164 43.436557,25.253813 0 0 0 42.67773,20.63477 43.436557,25.253813 0 0 0 5.0586,-0.20313 3.0304577,4.0406101 0 0 0 -0.008,0.20313 3.0304577,4.0406101 0 0 0 3.03126,4.04101 3.0304577,4.0406101 0 0 0 3.03124,-4.04101 3.0304577,4.0406101 0 0 0 -0.0723,-0.84375 43.436557,25.253813 0 0 0 31.52734,-19.38477 68.690373,40.4061 0 0 0 0.86914,0.0254 68.690373,40.4061 0 0 0 68.68946,-40.406246 68.690373,40.4061 0 0 0 -45.32227,-37.943359 63.63961,34.345183 0 0 0 -62.76367,-28.726563 z"
         style="fill:#00ff00;fill-opacity:1;stroke:none;stroke-width:3.77952766;stroke-miterlimit:4;stroke-dasharray:none"
         inkscape:connector-curvature="0" />
    </g>
    <g
       transform="matrix(0.72321312,0,0,0.49720741,336.06256,144.74557)"
       id="g4142">
      <rect
         style="fill:#800000;fill-opacity:1;stroke:none;stroke-width:1;stroke-miterlimit:4;stroke-dasharray:none"
         id="rect4138"
         width="20.082581"
         height="67.35878"
         x="-174.25972"
         y="119.52618" />
      <path
         inkscape:connector-curvature="0"
         style="fill:#00ff00;fill-opacity:1;stroke:none;stroke-width:3.77952766;stroke-miterlimit:4;stroke-dasharray:none"
         d="m -621.24414,15.882812 a 63.63961,34.345183 0 0 0 -63.63867,34.345704 63.63961,34.345183 0 0 0 1.91406,8.21289 61.619301,32.324881 0 0 0 -56.46289,32.19336 61.619301,32.324881 0 0 0 61.61914,32.324214 61.619301,32.324881 0 0 0 9.84961,-0.43164 43.436557,25.253813 0 0 0 42.67773,20.63477 43.436557,25.253813 0 0 0 5.0586,-0.20313 3.0304577,4.0406101 0 0 0 -0.008,0.20313 3.0304577,4.0406101 0 0 0 3.03126,4.04101 3.0304577,4.0406101 0 0 0 3.03124,-4.04101 3.0304577,4.0406101 0 0 0 -0.0723,-0.84375 43.436557,25.253813 0 0 0 31.52734,-19.38477 68.690373,40.4061 0 0 0 0.86914,0.0254 68.690373,40.4061 0 0 0 68.68946,-40.406246 68.690373,40.4061 0 0 0 -45.32227,-37.943359 63.63961,34.345183 0 0 0 -62.76367,-28.726563 z"
         transform="matrix(0.26458333,0,0,0.26458333,0,87)"
         id="path4140" />
    </g>
    <path
       style="fill:#ffffff;fill-opacity:1;stroke:none;stroke-width:1;stroke-miterlimit:4;stroke-dasharray:none"
       d="m 41.142193,130.11741 14.449872,14.9671 20.847023,17.7462 -16.036175,-6.94901 -9.621703,6.94901 v 0 l -9.621703,-5.34539 -11.242634,5.34539 z"
       id="rect4144"
       inkscape:connector-curvature="0"
       sodipodi:nodetypes="ccccccccc" />
    <path
       sodipodi:nodetypes="cccccccccc"
       inkscape:connector-curvature="0"
       id="path4147"
       d="m 196.01872,135.50011 14.44987,14.9671 20.84702,17.7462 -16.03617,-6.94901 -9.6217,6.94901 -3.74177,-10.69078 -9.08717,6.41447 -10.01592,-8.60455 -20.47012,5.39731 z"
       style="fill:#ffffff;fill-opacity:1;stroke:none;stroke-width:1;stroke-miterlimit:4;stroke-dasharray:none" />
    <path
       style="fill:#ffffff;fill-opacity:1;stroke:none;stroke-width:1;stroke-miterlimit:4;stroke-dasharray:none"
       d="m 295.60011,135.56921 0.53453,16.03617 v 19.77794 l -15.48507,-10.59432 -13.76023,5.93752 c 6.11926,0.0705 -7.65423,-0.0882 -14.9856,-0.1726 z"
       id="rect4151"
       inkscape:connector-curvature="0"
       sodipodi:nodetypes="ccccccc" />
    <path
       style="fill:#0000ff;fill-opacity:1;stroke:none;stroke-width:0.85498196;stroke-miterlimit:4;stroke-dasharray:none"
       id="path4154"
       sodipodi:type="arc"
       sodipodi:cx="166.50893"
       sodipodi:cy="226.70813"
       sodipodi:rx="33.408688"
       sodipodi:ry="12.027128"
       sodipodi:start="0"
       sodipodi:end="6.2387701"
       sodipodi:open="true"
       d="m 199.91761,226.70813 a 33.408688,12.027128 0 0 1 -33.03773,12.02639 33.408688,12.027128 0 0 1 -33.7714,-11.75932 33.408688,12.027128 0 0 1 32.28776,-12.28753 33.408688,12.027128 0 0 1 34.48843,11.48645" />
    <rect
       style="fill:#ffff00;fill-opacity:1;stroke:none;stroke-width:1;stroke-miterlimit:4;stroke-dasharray:none"
       id="rect4186"
       width="40.624966"
       height="31.003265"
       x="35.814117"
       y="214.14645" />
    <rect
       style="fill:#800000;fill-opacity:1;stroke:none;stroke-width:1;stroke-miterlimit:4;stroke-dasharray:none"
       id="rect4188"
       width="12.828938"
       height="16.036171"
       x="37.401619"
       y="229.11354" />
    <rect
       style="fill:#00ffff;fill-opacity:1;stroke:none;stroke-width:1;stroke-miterlimit:4;stroke-dasharray:none"
       id="rect4195"
       width="8.0180855"
       height="8.5526247"
       x="58.22134"
       y="228.92184" />
    <path
       style="fill:#ff0000;fill-opacity:1;stroke:none;stroke-width:1;stroke-miterlimit:4;stroke-dasharray:none"
       d="m 35.814117,214.14645 19.581108,-17.96393 20.50932,17.96393 v 0 z"
       id="rect4197"
       inkscape:connector-curvature="0"
       sodipodi:nodetypes="cccccc" />
  </g>
</svg>
